<?xml version="1.0" encoding="UTF-8"?>
<svg width="752pt" height="752pt" version="1.1" viewBox="0 0 752 752" xmlns="http://www.w3.org/2000/svg">
 <g>
  <path d="m376 0c-49.375 0-98.27 9.7266-143.89 28.621-45.621 18.895-87.07 46.59-121.98 81.508-34.918 34.914-62.613 76.363-81.508 121.98-18.895 45.617-28.621 94.512-28.621 143.89 0 99.723 39.617 195.36 110.13 265.87 70.516 70.516 166.15 110.13 265.87 110.13 99.723 0 195.36-39.617 265.87-110.13 70.512-70.512 110.13-166.15 110.13-265.87 0-99.719-39.613-195.36-110.12-265.87-70.516-70.516-166.15-110.13-265.88-110.13zm0 42.465c43.316 0 86.207 8.625 126.23 25.387 40.02 16.762 76.379 41.332 107.01 72.305s54.926 67.738 71.5 108.21c16.578 40.465 25.105 83.84 25.105 127.64 0 88.461-34.75 173.3-96.605 235.84-61.859 62.551-145.75 97.691-233.23 97.691-43.312 0-86.207-8.625-126.22-25.387-40.02-16.762-76.383-41.332-107.01-72.301-30.629-30.973-54.926-67.742-71.504-108.21-16.574-40.469-25.105-83.84-25.105-127.64s8.5312-87.172 25.105-127.64c16.578-40.469 40.871-77.238 71.5-108.21 30.629-30.969 66.992-55.539 107.01-72.301 40.02-16.762 82.914-25.387 126.23-25.387z" fill="#007235"/>
  <path d="m580.51 372.09c-10.309 3.4531-20.699 6.6094-31.098 9.6016v-129.8c0-34.531-28.109-62.633-62.641-62.633-32.863 0-59.82 25.453-62.363 57.699h-19.367c-2.7148 0-4.9336 2.1992-4.9336 4.9336 0 2.7148 2.2188 4.9336 4.9336 4.9336h48.09c2.7227 0 4.9336-2.2188 4.9336-4.9336 0-2.7344-2.2109-4.9336-4.9336-4.9336h-18.609c2.5273-26.746 24.863-47.832 52.25-47.832 29.086 0 52.773 23.66 52.773 52.766v132.56c-120.15 32.816-246.66 35.766-368.52 8.0703-2.7734-0.64062-5.3086 1.0547-5.9102 3.6992-0.61328 2.6719 1.0547 5.3164 3.7109 5.9297 2.8203 0.62109 5.6523 1.1836 8.4844 1.7969-15.234 50.27 11.266 104.45 61.219 122.69 9.1758 3.3359 18.688 5.2969 28.336 5.8789l-2.8516 8.5156c-2.8828 8.6133 1.7969 17.977 10.418 20.867 1.7266 0.58203 3.4922 0.84766 5.2188 0.84766 6.8984 0 13.359-4.3516 15.656-11.266l6.3047-18.824h162.02l6.3125 18.824c2.3008 6.8984 8.7617 11.266 15.656 11.266 1.7383 0 3.4922-0.26562 5.2109-0.84766 8.625-2.8906 13.301-12.254 10.418-20.867l-3.6211-10.863c48.277-10.488 84.543-53.496 84.543-104.87 0-13.93-2.9297-27.883-8.2266-40.797 3.2344-1.0273 6.5-1.9648 9.7188-3.0586 2.5938-0.86719 3.9648-3.6602 3.1172-6.2461-0.87109-2.5664-3.6523-3.9766-6.25-3.1094z" fill="#007335"/>
  <path d="m455.86 309.95c0 5.2656-4.2656 9.5312-9.5312 9.5312-5.2617 0-9.5312-4.2656-9.5312-9.5312 0-5.2617 4.2695-9.5312 9.5312-9.5312 5.2656 0 9.5312 4.2695 9.5312 9.5312" fill="#007335"/>
  <path d="m473.11 339.83c0 5.2617-4.2656 9.5312-9.5312 9.5312-5.2617 0-9.5312-4.2695-9.5312-9.5312 0-5.2656 4.2695-9.5312 9.5312-9.5312 5.2656 0 9.5312 4.2656 9.5312 9.5312" fill="#007335"/>
  <path d="m438.61 339.83c0 5.2617-4.2695 9.5312-9.5312 9.5312-5.2656 0-9.5312-4.2695-9.5312-9.5312 0-5.2656 4.2656-9.5312 9.5312-9.5312 5.2617 0 9.5312 4.2656 9.5312 9.5312" fill="#007335"/>
  <path d="m404.11 339.83c0 5.2617-4.2656 9.5312-9.5312 9.5312-5.2617 0-9.5312-4.2695-9.5312-9.5312 0-5.2656 4.2695-9.5312 9.5312-9.5312 5.2656 0 9.5312 4.2656 9.5312 9.5312" fill="#007335"/>
  <path d="m421.35 309.95c0 5.2656-4.2695 9.5312-9.5312 9.5312-5.2656 0-9.5312-4.2656-9.5312-9.5312 0-5.2617 4.2656-9.5312 9.5312-9.5312 5.2617 0 9.5312 4.2695 9.5312 9.5312" fill="#007335"/>
  <path d="m438.62 280.06c0 5.2695-4.2695 9.5391-9.5391 9.5391s-9.5391-4.2695-9.5391-9.5391 4.2695-9.543 9.5391-9.543 9.5391 4.2734 9.5391 9.543" fill="#007335"/>
 </g>
</svg>
