<?xml version="1.0" encoding="UTF-8"?>
<svg width="752pt" height="752pt" version="1.1" viewBox="0 0 752 752" xmlns="http://www.w3.org/2000/svg">
 <g fill="#007335">
  <path d="m376 0c-49.375 0-98.27 9.7266-143.89 28.621-45.621 18.895-87.07 46.59-121.98 81.508-34.918 34.914-62.613 76.363-81.508 121.98-18.895 45.617-28.621 94.512-28.621 143.89 0 99.723 39.617 195.36 110.13 265.87 70.516 70.516 166.15 110.13 265.87 110.13 99.723 0 195.36-39.617 265.87-110.13 70.512-70.512 110.13-166.15 110.13-265.87 0-99.719-39.613-195.36-110.12-265.87-70.516-70.516-166.15-110.13-265.88-110.13zm0 42.465c43.316 0 86.207 8.625 126.23 25.387 40.02 16.762 76.379 41.332 107.01 72.305s54.926 67.738 71.5 108.21c16.578 40.465 25.105 83.84 25.105 127.64 0 88.461-34.75 173.3-96.605 235.84-61.859 62.551-145.75 97.691-233.23 97.691-43.312 0-86.207-8.625-126.22-25.387-40.02-16.762-76.383-41.332-107.01-72.301-30.629-30.973-54.926-67.742-71.504-108.21-16.574-40.469-25.105-83.84-25.105-127.64s8.5312-87.172 25.105-127.64c16.578-40.469 40.871-77.238 71.5-108.21 30.629-30.969 66.992-55.539 107.01-72.301 40.02-16.762 82.914-25.387 126.23-25.387z"/>
  <path d="m198.41 473.59h9.8984v19.312c0 4.3398 3.5234 7.8633 7.8633 7.8633s7.8633-3.5234 7.8633-7.8633v-19.312h303.94v19.312c0 4.3398 3.5234 7.8633 7.8633 7.8633s7.8633-3.5234 7.8633-7.8633v-19.312h9.8906c4.3398 0 7.8633-3.5234 7.8633-7.8633v-71.195c0-16.629-8.3711-31.336-21.109-40.152v-47.266c0-30.82-25.066-55.887-55.887-55.887l-216.92 0.003906c-30.82 0-55.887 25.066-55.887 55.887v47.266c-12.738 8.8164-21.109 23.523-21.109 40.152v71.195c0.003906 4.3438 3.5273 7.8594 7.8672 7.8594zm7.8594-15.723v-46.949h339.46v46.949zm21.109-150.75c0-22.145 18.02-40.16 40.16-40.16h216.91c22.145 0 40.16 18.02 40.16 40.16v40.105c-3.8281-0.97266-7.8359-1.4883-11.961-1.4883h-16.094c0.21094-0.71094 0.32422-1.4609 0.32422-2.2383 0-17.188-12.988-31.16-28.961-31.16h-51.121c-15.965 0-28.961 13.977-28.961 31.16 0 0.77734 0.12109 1.5273 0.32422 2.2383h-24.355c0.21094-0.71094 0.32422-1.4609 0.32422-2.2383 0-17.188-12.988-31.16-28.961-31.16h-51.121c-15.965 0-28.961 13.977-28.961 31.16 0 0.77734 0.12109 1.5273 0.32422 2.2383h-16.094c-4.125 0-8.1289 0.51953-11.961 1.4883v-40.105zm254.11 38.617h-78.242c0.21094-0.71094 0.32422-1.4609 0.32422-2.2383 0-8.5078 5.9375-15.438 13.234-15.438h51.121c7.2969 0 13.234 6.9297 13.234 15.438-0.003906 0.78516 0.11719 1.5352 0.32813 2.2383zm-132.74 0h-78.242c0.21094-0.71094 0.32422-1.4609 0.32422-2.2383 0-8.5078 5.9375-15.438 13.234-15.438h51.121c7.2969 0 13.234 6.9297 13.234 15.438 0.003907 0.78516 0.11328 1.5352 0.32812 2.2383zm-109.41 15.723h273.32c18.23 0 33.066 14.836 33.066 33.066v0.66406h-339.46v-0.66406c0.007812-18.23 14.844-33.066 33.078-33.066z"/>
 </g>
</svg>
