<?xml version="1.0" encoding="UTF-8"?>
<svg width="752pt" height="752pt" version="1.1" viewBox="0 0 752 752" xmlns="http://www.w3.org/2000/svg">
 <defs>
  <clipPath id="d">
   <path d="m146 139.21h293v164.79h-293z"/>
  </clipPath>
  <clipPath id="c">
   <path d="m448 139.21h158v114.79h-158z"/>
  </clipPath>
  <clipPath id="b">
   <path d="m140 263h164v349.79h-164z"/>
  </clipPath>
  <clipPath id="a">
   <path d="m313 219h299v393.79h-299z"/>
  </clipPath>
 </defs>
 <path d="m376 0c-49.375 0-98.27 9.7266-143.89 28.621-45.621 18.895-87.07 46.59-121.98 81.508-34.918 34.914-62.613 76.363-81.508 121.98-18.895 45.617-28.621 94.512-28.621 143.89 0 99.723 39.617 195.36 110.13 265.87 70.516 70.516 166.15 110.13 265.87 110.13 99.723 0 195.36-39.617 265.87-110.13 70.512-70.512 110.13-166.15 110.13-265.87 0-99.719-39.613-195.36-110.12-265.87-70.516-70.516-166.15-110.13-265.88-110.13zm0 42.465c43.316 0 86.207 8.625 126.23 25.387 40.02 16.762 76.379 41.332 107.01 72.305s54.926 67.738 71.5 108.21c16.578 40.465 25.105 83.84 25.105 127.64 0 88.461-34.75 173.3-96.605 235.84-61.859 62.551-145.75 97.691-233.23 97.691-43.312 0-86.207-8.625-126.22-25.387-40.02-16.762-76.383-41.332-107.01-72.301-30.629-30.973-54.926-67.742-71.504-108.21-16.574-40.469-25.105-83.84-25.105-127.64s8.5312-87.172 25.105-127.64c16.578-40.469 40.871-77.238 71.5-108.21 30.629-30.969 66.992-55.539 107.01-72.301 40.02-16.762 82.914-25.387 126.23-25.387z" fill="#007335"/>
 <path d="m448.21 418.64 19.652 9.1094v-51.094l-19.652 7.8711z" fill="#007335"/>
 <path d="m418.79 426.19 19.66-7.8711v-29.879l-19.66 7.9102z" fill="#007335"/>
 <path d="m443.2 236.75-180.42 72.477 46.043 21.352 180.72-72.414z" fill="#007335"/>
 <g clip-path="url(#d)">
  <path d="m146.57 255.33 64.34 29.84c0.097656-8.9492 5.2383-18.191 11.551-20.73 6.3789-2.5703 11.551 2.6367 11.551 11.656 0 6.2812-2.5039 12.688-6.1836 16.922l22.785 10.547 187.85-75.402-0.003907-88.949zm121.42 23.332c-6.3789 2.5664-11.555-2.6367-11.555-11.648 0-8.9805 5.1797-18.391 11.555-20.957 6.3789-2.5703 11.582 2.6328 11.582 11.617 0.007812 9.0117-5.2031 18.422-11.582 20.988zm45.559-18.383c-6.4141 2.5664-11.555-2.6445-11.555-11.656 0-9.0117 5.1484-18.383 11.555-20.957 6.3828-2.6055 11.555 2.6016 11.555 11.613 0.003906 9.0234-5.1719 18.391-11.555 21zm45.531-18.426c-6.3789 2.6094-11.547-2.6016-11.547-11.617s5.1719-18.422 11.547-20.992c6.3828-2.5664 11.559 2.6367 11.559 11.648s-5.1797 18.387-11.559 20.961zm45.527-18.387c-6.375 2.5703-11.551-2.6367-11.551-11.648 0-8.9805 5.1797-18.391 11.551-20.957 6.4141-2.5703 11.59 2.6367 11.59 11.617 0 9.0117-5.1758 18.422-11.59 20.988z" fill="#007335"/>
 </g>
 <g clip-path="url(#c)">
  <path d="m605.5 211.7-157.29-72.18v88.809l53.82 24.836z" fill="#007335"/>
 </g>
 <g clip-path="url(#b)">
  <path d="m140.68 263.38v273.17l24.535 11.398v-184.66l118.91 55.395v184.58l19.656 9.1133v-273.37l-60.406-28.016z" fill="#007335"/>
 </g>
 <g clip-path="url(#a)">
  <path d="m611.33 219.89-103.13 41.336-194.64 77.977v273.59l19.691-7.4922v-185.2l253.56-101.73v184.23l24.531-9.3516v-184.69l-0.90625 0.32812 0.90625-0.35938zm-262.72 172.99c-6.4141 2.5703-11.59-2.6328-11.59-11.645s5.1797-18.383 11.59-20.953c6.3828-2.6055 11.551 2.6016 11.551 11.617 0 9.0156-5.168 18.395-11.551 20.98zm45.523-18.41c-6.3828 2.6094-11.547-2.6016-11.547-11.617 0-9.0117 5.1602-18.418 11.547-20.992 6.3828-2.5664 11.551 2.6367 11.551 11.648 0 9.0117-5.1641 18.391-11.551 20.961zm45.527-18.387c-6.375 2.5703-11.547-2.6367-11.547-11.645 0-8.9805 5.1758-18.391 11.547-20.961 6.3828-2.5703 11.59 2.6367 11.59 11.617 0.003906 9.0117-5.207 18.418-11.59 20.988zm45.57-18.383c-6.418 2.5664-11.559-2.6367-11.559-11.648 0-9.0156 5.1445-18.383 11.559-20.957 6.375-2.6055 11.547 2.6016 11.547 11.617 0 9.0117-5.1719 18.379-11.547 20.988zm45.523-18.422c-6.375 2.6055-11.547-2.6016-11.547-11.617s5.1719-18.422 11.547-20.992c6.3828-2.5703 11.559 2.6367 11.559 11.648 0 9.0117-5.1797 18.387-11.559 20.961zm45.523-18.387c-6.375 2.5703-11.547-2.6367-11.547-11.648 0-8.9805 5.1719-18.391 11.547-20.957 6.4141-2.5664 11.59 2.6328 11.59 11.617 0 9.0117-5.1758 18.418-11.59 20.988z" fill="#007335"/>
 </g>
</svg>
