<?xml version="1.0" encoding="UTF-8"?>
<svg width="752pt" height="752pt" version="1.1" viewBox="0 0 752 752" xmlns="http://www.w3.org/2000/svg">
 <g>
  <path d="m376 0c-49.375 0-98.27 9.7266-143.89 28.621-45.621 18.895-87.07 46.59-121.98 81.508-34.918 34.914-62.613 76.363-81.508 121.98-18.895 45.617-28.621 94.512-28.621 143.89 0 99.723 39.617 195.36 110.13 265.87 70.516 70.516 166.15 110.13 265.87 110.13 99.723 0 195.36-39.617 265.87-110.13 70.512-70.512 110.13-166.15 110.13-265.87 0-99.719-39.613-195.36-110.12-265.87-70.516-70.516-166.15-110.13-265.88-110.13zm0 42.465c43.316 0 86.207 8.625 126.23 25.387 40.02 16.762 76.379 41.332 107.01 72.305s54.926 67.738 71.5 108.21c16.578 40.465 25.105 83.84 25.105 127.64 0 88.461-34.75 173.3-96.605 235.84-61.859 62.551-145.75 97.691-233.23 97.691-43.312 0-86.207-8.625-126.22-25.387-40.02-16.762-76.383-41.332-107.01-72.301-30.629-30.973-54.926-67.742-71.504-108.21-16.574-40.469-25.105-83.84-25.105-127.64s8.5312-87.172 25.105-127.64c16.578-40.469 40.871-77.238 71.5-108.21 30.629-30.969 66.992-55.539 107.01-72.301 40.02-16.762 82.914-25.387 126.23-25.387z"/>
  <path d="m419.1 381.21-62.039 31.258s-65.828-44.516-72.93-49.254c-6.6289-4.7344-14.68-8.9961-19.891-10.891-21.785-7.1055-78.613-12.312-94.242 24.625-16.574 38.832-13.734 140.18-13.262 212.16 0 6.1562 4.2617 11.367 10.418 11.367h119.34c7.1055 0 9.9453-3.7891 10.891-9.9453 0.47266-3.7891 7.1055-85.719 7.1055-121.24v-12.312l31.73 21.312c5.6836 3.7891 11.84 5.6836 18.469 5.6836 5.2109 0 10.418-1.4219 15.156-3.7891l79.562-40.727c16.102-8.5234 22.73-28.414 14.68-44.516-8.5273-15.633-28.891-22.262-44.992-13.738z"/>
  <path d="m311.59 258.55c0 40.016-32.441 72.457-72.457 72.457-40.02 0-72.457-32.441-72.457-72.457 0-40.02 32.438-72.461 72.457-72.461 40.016 0 72.457 32.441 72.457 72.461"/>
  <path d="m475.93 151.05c-65.828 0-119.34 38.359-119.34 85.246 0 26.992 17.523 50.672 44.516 66.301-2.8398 7.5781-7.5781 17.523-17.996 29.836-6.6289 7.5781 0.94531 18.941 10.418 15.629 19.418-7.1055 42.148-17.523 62.984-27.941 6.1562 0.94531 12.785 1.4219 19.418 1.4219 65.828 0 119.34-38.359 119.34-85.246 0.003906-46.887-53.039-85.246-119.34-85.246zm50.676 66.773-55.883 60.621c-2.3672 2.3672-5.6836 2.3672-8.0508 0l-37.414-39.781c-1.8945-2.3672-1.8945-5.6836 0.47266-7.5781l11.84-11.367c2.3672-1.8945 5.6836-1.8945 7.5781 0.47266l21.312 23.207 40.727-43.57c1.8945-2.3672 5.6836-2.3672 7.5781-0.47266l11.84 10.891c1.8945 1.8945 2.3672 5.6836 0 7.5781z"/>
 </g>
</svg>
