<?xml version="1.0" encoding="UTF-8"?>
<svg width="752pt" height="752pt" version="1.1" viewBox="0 0 752 752" xmlns="http://www.w3.org/2000/svg">
 <g>
  <path d="m376 0c-49.375 0-98.27 9.7266-143.89 28.621-45.621 18.895-87.07 46.59-121.98 81.508-34.918 34.914-62.613 76.363-81.508 121.98-18.895 45.617-28.621 94.512-28.621 143.89 0 99.723 39.617 195.36 110.13 265.87 70.516 70.516 166.15 110.13 265.87 110.13 99.723 0 195.36-39.617 265.87-110.13 70.512-70.512 110.13-166.15 110.13-265.87 0-99.719-39.613-195.36-110.12-265.87-70.516-70.516-166.15-110.13-265.88-110.13zm0 42.465c43.316 0 86.207 8.625 126.23 25.387 40.02 16.762 76.379 41.332 107.01 72.305s54.926 67.738 71.5 108.21c16.578 40.465 25.105 83.84 25.105 127.64 0 88.461-34.75 173.3-96.605 235.84-61.859 62.551-145.75 97.691-233.23 97.691-43.312 0-86.207-8.625-126.22-25.387-40.02-16.762-76.383-41.332-107.01-72.301-30.629-30.973-54.926-67.742-71.504-108.21-16.574-40.469-25.105-83.84-25.105-127.64s8.5312-87.172 25.105-127.64c16.578-40.469 40.871-77.238 71.5-108.21 30.629-30.969 66.992-55.539 107.01-72.301 40.02-16.762 82.914-25.387 126.23-25.387z"/>
  <path d="m589.11 222.84h-54.352v-13.457c0-19.883-16.176-36.059-36.059-36.059s-36.055 16.176-36.055 36.059v13.457h-173.29v-13.457c0-19.883-16.172-36.055-36.055-36.055-19.883 0-36.055 16.172-36.055 36.055v13.457h-54.355c-5.8828 0-10.656 4.7734-10.656 10.656v334.54c0 5.8828 4.7734 10.656 10.656 10.656h426.22c5.8828 0 10.656-4.7734 10.656-10.656v-334.54c0-5.8828-4.7734-10.656-10.656-10.656zm-105.16-13.457c0-8.1289 6.6133-14.75 14.742-14.75 8.1289 0 14.75 6.6172 14.75 14.75v30.137c0 8.1289-6.6172 14.742-14.75 14.742-8.1289 0-14.742-6.6133-14.742-14.742zm-245.4 0c0-8.1289 6.6133-14.742 14.742-14.742s14.742 6.6133 14.742 14.742v30.137c0 8.1289-6.6133 14.75-14.742 14.75s-14.742-6.6172-14.742-14.75zm339.9 347.99h-404.91v-233.15h404.91zm0-254.46h-404.91v-58.762h43.996c2.2812 17.703 17.445 31.426 35.758 31.426s33.477-13.723 35.758-31.426h173.89c2.2812 17.703 17.445 31.422 35.758 31.422s33.48-13.719 35.762-31.422h43.992z"/>
  <path d="m350.55 424.21h50.91c5.8828 0 10.656-4.7734 10.656-10.656v-50.91c0-5.8828-4.7734-10.656-10.656-10.656h-50.91c-5.8828 0-10.656 4.7734-10.656 10.656v50.91c0 5.8828 4.7734 10.656 10.656 10.656zm10.656-50.91h29.598v29.598h-29.598z"/>
  <path d="m482.56 424.21h50.91c5.8828 0 10.656-4.7734 10.656-10.656v-50.91c0-5.8828-4.7734-10.656-10.656-10.656h-50.91c-5.8828 0-10.656 4.7734-10.656 10.656v50.91c0 5.8828 4.7734 10.656 10.656 10.656zm10.652-50.91h29.602v29.598h-29.598z"/>
  <path d="m218.54 529.58h50.91c5.8828 0 10.656-4.7734 10.656-10.656v-50.91c0-5.8828-4.7734-10.656-10.656-10.656h-50.91c-5.8828 0-10.656 4.7734-10.656 10.656v50.91c0 5.8828 4.7734 10.656 10.656 10.656zm10.656-50.91h29.598v29.598h-29.598z"/>
  <path d="m350.55 529.58h50.91c5.8828 0 10.656-4.7734 10.656-10.656v-50.91c0-5.8828-4.7734-10.656-10.656-10.656h-50.91c-5.8828 0-10.656 4.7734-10.656 10.656v50.91c0 5.8828 4.7734 10.656 10.656 10.656zm10.656-50.91h29.598v29.598h-29.598z"/>
  <path d="m482.56 529.58h50.91c5.8828 0 10.656-4.7734 10.656-10.656v-50.91c0-5.8828-4.7734-10.656-10.656-10.656h-50.91c-5.8828 0-10.656 4.7734-10.656 10.656v50.91c0 5.8828 4.7734 10.656 10.656 10.656zm10.652-50.91h29.602v29.598h-29.598z"/>
 </g>
</svg>
