<?xml version="1.0" encoding="UTF-8"?>
<svg width="752pt" height="752pt" version="1.1" viewBox="0 0 752 752" xmlns="http://www.w3.org/2000/svg">
 <defs>
  <clipPath id="a">
   <path d="m141 142h470v470.79h-470z"/>
  </clipPath>
 </defs>
 <path d="m376 0c-49.375 0-98.27 9.7266-143.89 28.621-45.621 18.895-87.07 46.59-121.98 81.508-34.918 34.914-62.613 76.363-81.508 121.98-18.895 45.617-28.621 94.512-28.621 143.89 0 99.723 39.617 195.36 110.13 265.87 70.516 70.516 166.15 110.13 265.87 110.13 99.723 0 195.36-39.617 265.87-110.13 70.512-70.512 110.13-166.15 110.13-265.87 0-99.719-39.613-195.36-110.12-265.87-70.516-70.516-166.15-110.13-265.88-110.13zm0 42.465c43.316 0 86.207 8.625 126.23 25.387 40.02 16.762 76.379 41.332 107.01 72.305s54.926 67.738 71.5 108.21c16.578 40.465 25.105 83.84 25.105 127.64 0 88.461-34.75 173.3-96.605 235.84-61.859 62.551-145.75 97.691-233.23 97.691-43.312 0-86.207-8.625-126.22-25.387-40.02-16.762-76.383-41.332-107.01-72.301-30.629-30.973-54.926-67.742-71.504-108.21-16.574-40.469-25.105-83.84-25.105-127.64s8.5312-87.172 25.105-127.64c16.578-40.469 40.871-77.238 71.5-108.21 30.629-30.969 66.992-55.539 107.01-72.301 40.02-16.762 82.914-25.387 126.23-25.387z" fill="#007235"/>
 <path d="m248.13 442.3h-4.7344v23.676h265.21v-23.676z" fill="#007335"/>
 <path d="m267.08 484.93h217.85v56.828h-217.85z" fill="#007335"/>
 <path d="m267.08 404.42h217.85v18.941h-217.85z" fill="#007335"/>
 <path d="m349.01 350.9c0 3.3984-2.7578 6.1562-6.1562 6.1562-3.4023 0-6.1562-2.7578-6.1562-6.1562 0-3.4023 2.7539-6.1562 6.1562-6.1562 3.3984 0 6.1562 2.7539 6.1562 6.1562" fill="#007335"/>
 <path d="m415.31 350.9c0 3.3984-2.7578 6.1562-6.1562 6.1562-3.4023 0-6.1562-2.7578-6.1562-6.1562 0-3.4023 2.7539-6.1562 6.1562-6.1562 3.3984 0 6.1562 2.7539 6.1562 6.1562" fill="#007335"/>
 <path d="m481.61 350.9c0 3.3984-2.7539 6.1562-6.1562 6.1562-3.3984 0-6.1562-2.7578-6.1562-6.1562 0-3.4023 2.7578-6.1562 6.1562-6.1562 3.4023 0 6.1562 2.7539 6.1562 6.1562" fill="#007335"/>
 <path d="m282.71 350.9c0 3.3984-2.7578 6.1562-6.1562 6.1562-3.4023 0-6.1562-2.7578-6.1562-6.1562 0-3.4023 2.7539-6.1562 6.1562-6.1562 3.3984 0 6.1562 2.7539 6.1562 6.1562" fill="#007335"/>
 <g clip-path="url(#a)">
  <path d="m574.91 271.81v-71.039h-25.102l26.52-47.832-17.051-8.9961-31.258 56.828-114.13 0.003906v71.039h-52.094v-56.828h28.414v-47.359h-28.414v-25.102h-184.7v25.102h-26.992v47.359h26.992v56.828h-35.52v56.828h20.363v269.94h38.832v15.629h48.777v-15.629h254.31v15.629h48.777v-15.629h37.887v-269.94h20.363v-56.828zm-142.07-52.094h123.13v52.094h-123.13zm-83.824-33.148h22.258v9.4727h-22.73v-9.4727zm-152.97 28.414h14.207v-47.359h-14.207v-6.1562h146.81v6.1562h-13.262v47.359h13.262v56.828h-146.81zm-26.992-18.945v-9.4727h22.258v9.4727zm358.5 288.89h-23.68v75.773h-255.73v-75.773h-23.68v-61.566h23.68v-37.887h255.73v37.887h23.68zm-276.1-134.02c0-13.734 11.367-25.102 25.102-25.102s25.102 11.367 25.102 25.102-11.367 25.102-25.102 25.102c-13.734-0.003906-25.102-11.367-25.102-25.102zm66.301 0c0-13.734 11.367-25.102 25.102-25.102 13.734 0 25.102 11.367 25.102 25.102s-11.367 25.102-25.102 25.102c-13.734-0.003906-25.102-11.367-25.102-25.102zm66.301 0c0-13.734 11.367-25.102 25.102-25.102s25.102 11.367 25.102 25.102-11.367 25.102-25.102 25.102c-13.734-0.003906-25.102-11.367-25.102-25.102zm66.305 0c0-13.734 11.367-25.102 25.102-25.102s25.102 11.367 25.102 25.102-11.367 25.102-25.102 25.102c-13.738-0.003906-25.102-11.367-25.102-25.102zm141.12-41.203h-429.54l-1.4219-9.4727v-9.4727h430.95z" fill="#007335"/>
 </g>
</svg>
