<?xml version="1.0" encoding="UTF-8"?>
<svg width="752pt" height="752pt" version="1.1" viewBox="0 0 752 752" xmlns="http://www.w3.org/2000/svg">
 <g>
  <path d="m376 0c-49.375 0-98.27 9.7266-143.89 28.621-45.621 18.895-87.07 46.59-121.98 81.508-34.918 34.914-62.613 76.363-81.508 121.98-18.895 45.617-28.621 94.512-28.621 143.89 0 99.723 39.617 195.36 110.13 265.87 70.516 70.516 166.15 110.13 265.87 110.13 99.723 0 195.36-39.617 265.87-110.13 70.512-70.512 110.13-166.15 110.13-265.87 0-99.719-39.613-195.36-110.12-265.87-70.516-70.516-166.15-110.13-265.88-110.13zm0 42.465c43.316 0 86.207 8.625 126.23 25.387 40.02 16.762 76.379 41.332 107.01 72.305s54.926 67.738 71.5 108.21c16.578 40.465 25.105 83.84 25.105 127.64 0 88.461-34.75 173.3-96.605 235.84-61.859 62.551-145.75 97.691-233.23 97.691-43.312 0-86.207-8.625-126.22-25.387-40.02-16.762-76.383-41.332-107.01-72.301-30.629-30.973-54.926-67.742-71.504-108.21-16.574-40.469-25.105-83.84-25.105-127.64s8.5312-87.172 25.105-127.64c16.578-40.469 40.871-77.238 71.5-108.21 30.629-30.969 66.992-55.539 107.01-72.301 40.02-16.762 82.914-25.387 126.23-25.387z" fill="#007235"/>
  <path d="m521.09 144.8c1.1172 6.7109 1.6758 49.762 1.6758 73.805 0 23.484-21.246 60.945-49.203 66.535l6.1523 319.82c0 2.7969-30.191 2.7969-30.191 0l6.7109-319.82c-28.516-5.5898-49.762-43.055-49.762-66.535 0-24.043 0.55859-67.094 2.2383-73.805h112.38zm-89.461 13.418c1.6758 0 3.3555 1.6758 3.3555 3.3555v64.301c0 1.6758-1.6758 3.3555-3.3555 3.3555-2.2383 0-3.9141-1.6758-3.9141-3.3555v-64.301c0-1.6758 1.6758-3.3555 3.9141-3.3555zm21.805 0c2.2383 0 3.9141 1.6758 3.9141 3.3555v64.301c0 1.6758-1.6758 3.3555-3.9141 3.3555-1.6758 0-3.3555-1.6758-3.3555-3.3555v-64.301c0-1.6758 1.6758-3.3555 3.3555-3.3555zm22.363 0c2.2383 0 3.3555 1.6758 3.3555 3.3555v64.301c0 1.6758-1.1172 3.3555-3.3555 3.3555s-3.3555-1.6758-3.3555-3.3555v-64.301c0-1.6758 1.1172-3.3555 3.3555-3.3555zm22.363 0c1.6758 0 3.3555 1.6758 3.3555 3.3555v64.301c0 1.6758-1.6758 3.3555-3.3555 3.3555-2.2383 0-3.9141-1.6758-3.9141-3.3555v-64.301c0-1.6758 1.6758-3.3555 3.9141-3.3555zm-33.547 421.58c2.7969 0 5.0312 3.9141 5.0312 8.9453s-2.2383 8.9453-5.0312 8.9453c-2.7969 0-5.0312-3.9141-5.0312-8.9453s2.2383-8.9453 5.0312-8.9453z" fill="#007335" fill-rule="evenodd"/>
  <path d="m295.21 144.8c36.902 0 66.535 31.312 66.535 69.891 0 34.664-24.602 63.742-56.473 68.773l6.7109 320.94c0 3.9141-32.988 3.9141-32.988 0l6.7109-320.94c-32.43-5.0312-57.031-34.105-57.031-68.773 0-38.578 30.191-69.891 66.535-69.891zm0 435c2.7969 0 5.0312 4.4727 5.0312 9.5039s-2.2383 8.9453-5.0312 8.9453c-2.2383 0-4.4727-3.9141-4.4727-8.9453s2.2383-9.5039 4.4727-9.5039z" fill="#007335" fill-rule="evenodd"/>
 </g>
</svg>
