<?xml version="1.0" encoding="UTF-8" standalone="no"?>
<svg
   width="800pt"
   height="500pt"
   version="1.1"
   viewBox="0 0 666.66667 416.66667"
   id="svg156"
   sodipodi:docname="logo2.svg"
   inkscape:version="1.2.1 (9c6d41e, 2022-07-14)"
   xmlns:inkscape="http://www.inkscape.org/namespaces/inkscape"
   xmlns:sodipodi="http://sodipodi.sourceforge.net/DTD/sodipodi-0.dtd"
   xmlns="http://www.w3.org/2000/svg"
   xmlns:svg="http://www.w3.org/2000/svg">
  <defs
     id="defs160">
    <rect
       x="671.27686"
       y="199.68362"
       width="186.93785"
       height="101.9661"
       id="rect581" />
  </defs>
  <sodipodi:namedview
     id="namedview158"
     pagecolor="#ffffff"
     bordercolor="#bcbcbc"
     borderopacity="0.53333333"
     inkscape:showpageshadow="2"
     inkscape:pageopacity="0"
     inkscape:pagecheckerboard="true"
     inkscape:deskcolor="#c1c1c1"
     inkscape:document-units="pt"
     showgrid="false"
     inkscape:zoom="0.23537234"
     inkscape:cx="-82.847458"
     inkscape:cy="271.90961"
     inkscape:window-width="1309"
     inkscape:window-height="456"
     inkscape:window-x="0"
     inkscape:window-y="38"
     inkscape:window-maximized="0"
     inkscape:current-layer="svg156" />
  <g
     id="g154"
     transform="translate(-37.175138,-227.8305)">
    <path
       d="m 544.81,415.48 c 2.5664,2.4375 5.9062,3.8047 9.4766,3.8047 3.6875,0 7.1562,-1.4297 9.75,-4.0312 l 2.4727,-2.4727 c 5.3789,-5.375 5.3789,-14.125 0,-19.508 l -72.316,-72.316 4.5508,-4.5508 c 5.375,-5.3789 5.375,-14.125 0,-19.504 l -2.4727,-2.4766 c -5.3789,-5.375 -14.133,-5.375 -19.508,0 l -4.5508,4.5508 -4.5547,-4.5547 c -5.375,-5.375 -14.121,-5.375 -19.512,0.004 l -2.4688,2.4688 c -5.375,5.375 -5.375,14.125 0,19.508 l 4.5547,4.5547 -22.449,22.449 V 324.23 c 0,-2.6133 -2.1211,-4.7344 -4.7344,-4.7344 h -20.797 c -2.6133,0 -4.7344,2.1211 -4.7344,4.7344 v 49.441 l -19.602,19.602 c -5.3789,5.375 -5.3789,14.125 0,19.508 l 2.4727,2.4727 c 2.5938,2.6016 6.0625,4.0312 9.75,4.0312 3.6953,0 7.1562,-1.4297 9.7539,-4.0312 l 1.3242,-1.3242 3.5781,75.398 c -4.5977,1.2656 -8.8398,2.5391 -12.844,3.75 -13.469,4.0742 -24.145,7.2773 -39.012,7.1094 -16.609,-0.19922 -34.727,-3.8945 -52.254,-7.4648 -8.875,-1.8086 -17.414,-3.5 -25.734,-4.8164 v -15.457 h 49.109 c 6.3711,0 12.117,-3.5312 15,-9.2109 2.8789,-5.6836 2.3281,-12.406 -1.4336,-17.547 l -23.684,-32.312 c 4.7344,-0.62109 8.875,-3.5195 11.078,-7.8672 2.4961,-4.9297 2.0234,-10.758 -1.2461,-15.223 l -30.781,-41.992 h 3.6758 c 4.4102,0 8.3867,-2.4453 10.383,-6.3789 1.9922,-3.9336 1.6094,-8.5859 -0.99609,-12.145 l -35.883,-48.949 c -2.1641,-2.957 -5.5078,-4.6875 -9.168,-4.7578 -3.6719,-0.0234 -7.0703,1.5391 -9.3438,4.4141 l -38.758,48.953 c -2.793,3.5312 -3.3086,8.2422 -1.3516,12.293 1.9609,4.0508 5.9766,6.5703 10.477,6.5703 h 4.9141 l -32.906,41.562 c -3.5,4.4219 -4.1484,10.328 -1.6914,15.406 2.4336,5.0352 7.4023,8.1797 12.98,8.2344 l -25.086,31.691 c -4.0391,5.1016 -4.7812,11.91 -1.9492,17.766 2.832,5.8516 8.6328,9.4922 15.141,9.4922 h 49.105 v 13.598 c -30.805,2.2969 -62.871,15.395 -71.695,21.273 l 5.2539,7.8789 c 8.1875,-5.457 49.812,-22.32 82.285,-19.824 12.586,0.96094 26.105,3.7109 40.41,6.625 17.957,3.6562 36.523,7.4414 54.031,7.6523 16.406,0.25 28.191,-3.375 41.875,-7.5156 17.633,-5.332 39.574,-11.969 80.82,-12.797 12.168,0.0156 22.375,0.71094 30.75,1.668 0.375,0.0469 0.77344,0.082 1.1406,0.12891 0.32031,0.0391 0.60547,0.082 0.92188,0.11719 42.652,5.9805 67.328,23.609 67.633,23.824 l 5.582,-7.6484 c -0.95312,-0.69531 -14.902,-10.594 -39.652,-18.34 z m -279.34,70.012 -13.473,-1.168 V 472.453 H 265.47 Z M 247.263,462.98 h -53.844 c -2.8828,0 -5.3555,-1.5469 -6.6094,-4.1445 -1.2539,-2.5938 -0.9375,-5.5 0.85156,-7.7617 l 31.168,-39.363 c 1.1289,-1.4219 1.3398,-3.3672 0.55078,-5 -0.78906,-1.6328 -2.4492,-2.6719 -4.2617,-2.6719 h -9.6406 c -2.0078,0 -3.7305,-1.0781 -4.6016,-2.8906 -0.875,-1.8086 -0.65234,-3.832 0.59375,-5.4023 l 38.98,-49.234 c 1.1289,-1.4219 1.3398,-3.3672 0.55078,-5 -0.78906,-1.6328 -2.4492,-2.6719 -4.2617,-2.6719 h -14.703 c -1.1836,0 -1.7305,-0.76562 -1.9492,-1.2227 -0.17969,-0.37109 -0.51172,-1.332 0.25,-2.293 l 38.758,-48.949 c 0.5625,-0.70703 1.2891,-0.82422 1.6992,-0.82422 h 0.043 c 0.39844,0.004 1.1562,0.13281 1.7031,0.88672 l 35.883,48.953 c 0.71094,0.96484 0.36328,1.9023 0.18359,2.2578 -0.22266,0.44531 -0.77734,1.1875 -1.9336,1.1875 h -13.02 c -1.7852,0 -3.418,1.0039 -4.2227,2.5938 -0.80469,1.5898 -0.64844,3.5 0.40234,4.9375 l 36.305,49.527 c 1.1641,1.5859 1.3242,3.582 0.4375,5.3359 -0.89062,1.7578 -2.5938,2.8047 -4.5625,2.8047 h -7.3164 c -1.7852,0 -3.418,1.0039 -4.2227,2.5938 -0.80469,1.5898 -0.64844,3.5 0.40234,4.9375 l 29.109,39.719 c 1.6719,2.2773 1.9023,5.1445 0.625,7.6641 -1.2773,2.5195 -3.7266,4.0273 -6.5508,4.0273 h -53.848 l -22.949,0.008 z m 312.55,-63.008 c 1.6797,1.6875 1.6797,4.4297 0,6.1133 l -2.4727,2.4727 c -1.6211,1.6211 -4.4961,1.6211 -6.1133,0 l -72.316,-72.32 8.582,-8.582 z m -76.344,-98.848 c 0.84375,-0.84375 1.9492,-1.2656 3.0586,-1.2656 1.1016,0 2.2109,0.42188 3.0547,1.2578 l 2.4727,2.4727 c 1.6797,1.6797 1.6797,4.4297 0,6.1133 l -4.5508,4.5508 -8.582,-8.582 z m -11.254,11.25 8.582,8.582 -8.582,8.582 -8.582,-8.582 z m -19.832,-8.7812 2.4688,-2.4688 c 0.84375,-0.84375 1.9492,-1.2656 3.0586,-1.2656 1.1094,0 2.2148,0.42188 3.0586,1.2656 l 4.5547,4.5547 -8.582,8.582 -4.5508,-4.5508 c -1.6953,-1.6875 -1.6953,-4.4297 -0.008,-6.1172 z m -45.391,25.375 h 11.324 v 23.91 l -11.324,11.324 z m -4.918,70.715 -8.875,8.875 c -1.6133,1.6211 -4.4961,1.6211 -6.1133,0 l -2.4727,-2.4727 c -1.6797,-1.6875 -1.6797,-4.4297 0,-6.1133 l 20.984,-20.984 c 0,0 0.004,0 0.004,-0.004 l 51.332,-51.332 8.0898,8.0898 z m 130.45,86.48 c -4.7695,-1.3086 -12.398,-2.9844 -22.863,-4.2852 -0.70703,-0.0977 -1.457,-0.16016 -2.168,-0.25 -1.2734,-0.14844 -2.4961,-0.29688 -3.8516,-0.42969 -8.7383,-0.96094 -18.066,-1.5 -28.105,-1.3203 h -0.0742 -0.32031 c -29.215,0 -51.043,4.4297 -60.973,6.9062 l -3.8789,-81.906 61.453,-61.453 63.941,63.008 z"
       id="path142" />
    <path
       d="m 448.27,411.08 c -1.3086,0 -2.3672,1.0625 -2.3672,2.3672 v 14.191 c 0,1.3086 1.0625,2.3672 2.3672,2.3672 h 22.234 c 1.3086,0 2.3672,-1.0625 2.3672,-2.3672 v -14.191 c 0,-1.3086 -1.0625,-2.3672 -2.3672,-2.3672 z m 19.867,14.195 h -17.5 v -9.457 h 17.5 z"
       id="path144" />
    <path
       d="m 478.11,430.01 h 22.238 c 1.3086,0 2.3672,-1.0625 2.3672,-2.3672 v -14.191 c 0,-1.3086 -1.0625,-2.3672 -2.3672,-2.3672 H 478.11 c -1.3086,0 -2.3672,1.0625 -2.3672,2.3672 v 14.191 c 0,1.3125 1.0547,2.3672 2.3672,2.3672 z m 2.3672,-14.191 h 17.504 v 9.457 h -17.504 z"
       id="path146" />
    <path
       d="m 470.51,432.41 h -22.234 c -1.3086,0 -2.3672,1.0625 -2.3672,2.3672 v 14.191 c 0,1.3086 1.0625,2.3672 2.3672,2.3672 h 22.234 c 1.3086,0 2.3672,-1.0625 2.3672,-2.3672 v -14.191 c 0.004,-1.3125 -1.0586,-2.3672 -2.3672,-2.3672 z m -2.3672,14.188 h -17.5 v -9.457 h 17.5 z"
       id="path148" />
    <path
       d="m 478.11,451.33 h 22.238 c 1.3086,0 2.3672,-1.0625 2.3672,-2.3672 v -14.191 c 0,-1.3086 -1.0625,-2.3672 -2.3672,-2.3672 H 478.11 c -1.3086,0 -2.3672,1.0625 -2.3672,2.3672 v 14.191 c 0,1.3125 1.0547,2.3672 2.3672,2.3672 z m 2.3672,-14.188 h 17.504 v 9.457 h -17.504 z"
       id="path150" />
    <path
       d="m 414.6,288.88 c 0.42578,-2.125 1.1523,-4.207 1.9414,-6.2422 0.38672,-1.0234 0.89063,-2 1.375,-2.9844 l 0.83203,-1.5312 0.85547,-1.3828 c 1.1953,-1.9688 2.75,-4 4.1758,-6.4961 1.4922,-2.4688 2.5469,-5.5156 2.9883,-8.4102 0.0742,-0.76172 0.1875,-1.3633 0.21484,-2.2266 0.0156,-0.62891 0.0508,-1.0859 -0.0156,-1.9102 -0.0742,-1.5352 -0.27344,-2.793 -0.55469,-4.0586 -0.51953,-2.5039 -1.4727,-4.6875 -2.4961,-6.543 -2.0234,-3.7383 -4.4531,-6.1758 -6.1758,-7.7617 -1.7578,-1.5664 -2.8789,-2.3008 -2.8789,-2.3008 0,0 0.48438,1.2266 1.332,3.375 0.80859,2.1133 1.918,5.1289 2.6445,8.6133 0.33984,1.7539 0.53516,3.6172 0.5625,5.5 0.008,0.92969 -0.0742,1.9453 -0.21875,2.7266 l -0.26563,1.6016 c -0.0469,0.32031 -0.22266,0.88672 -0.31641,1.3164 -0.51562,1.8438 -1.457,3.4336 -2.6445,5.2656 -1.2344,1.8125 -2.8242,3.8711 -4.3555,6.2617 l -1.1289,1.9258 -0.96484,1.875 c -0.64452,1.3164 -1.16019,2.6836 -1.6016,4.0547 -0.91797,2.7344 -1.3125,5.5352 -1.543,8.1875 -0.39453,5.3281 0.40234,10.164 1.5117,14.066 1.0742,3.918 2.5586,6.957 3.6094,9.0469 1.1367,2.0156 1.8711,3.1445 1.8711,3.1445 0,0 0.0234,-1.3438 -0.0664,-3.6602 -0.0156,-2.2812 -0.11719,-5.4883 -0.0469,-9.2344 0.13672,-3.7383 0.43359,-7.9805 1.3594,-12.219 z"
       id="path152" />
  </g>
  <text
     xml:space="preserve"
     transform="scale(0.75)"
     id="text579"
     style="font-size:64px;white-space:pre;shape-inside:url(#rect581);display:inline;fill:#000000" />
  <text
     xml:space="preserve"
     style="font-size:99.9997px;fill:#008000;stroke-width:0.75"
     x="70.632767"
     y="373.34464"
     id="text688"><tspan
       sodipodi:role="line"
       id="tspan686"
       style="stroke-width:0.75;fill:#008000"
       x="70.632767"
       y="373.34464">дом у леса</tspan></text>
  <g
     id="g702"
     transform="translate(-37.175138,-227.8305)"
     style="fill:#008000">
    <path
       d="m 544.81,415.48 c 2.5664,2.4375 5.9062,3.8047 9.4766,3.8047 3.6875,0 7.1562,-1.4297 9.75,-4.0312 l 2.4727,-2.4727 c 5.3789,-5.375 5.3789,-14.125 0,-19.508 l -72.316,-72.316 4.5508,-4.5508 c 5.375,-5.3789 5.375,-14.125 0,-19.504 l -2.4727,-2.4766 c -5.3789,-5.375 -14.133,-5.375 -19.508,0 l -4.5508,4.5508 -4.5547,-4.5547 c -5.375,-5.375 -14.121,-5.375 -19.512,0.004 l -2.4688,2.4688 c -5.375,5.375 -5.375,14.125 0,19.508 l 4.5547,4.5547 -22.449,22.449 V 324.23 c 0,-2.6133 -2.1211,-4.7344 -4.7344,-4.7344 h -20.797 c -2.6133,0 -4.7344,2.1211 -4.7344,4.7344 v 49.441 l -19.602,19.602 c -5.3789,5.375 -5.3789,14.125 0,19.508 l 2.4727,2.4727 c 2.5938,2.6016 6.0625,4.0312 9.75,4.0312 3.6953,0 7.1562,-1.4297 9.7539,-4.0312 l 1.3242,-1.3242 3.5781,75.398 c -4.5977,1.2656 -8.8398,2.5391 -12.844,3.75 -13.469,4.0742 -24.145,7.2773 -39.012,7.1094 -16.609,-0.19922 -34.727,-3.8945 -52.254,-7.4648 -8.875,-1.8086 -17.414,-3.5 -25.734,-4.8164 v -15.457 h 49.109 c 6.3711,0 12.117,-3.5312 15,-9.2109 2.8789,-5.6836 2.3281,-12.406 -1.4336,-17.547 l -23.684,-32.312 c 4.7344,-0.62109 8.875,-3.5195 11.078,-7.8672 2.4961,-4.9297 2.0234,-10.758 -1.2461,-15.223 l -30.781,-41.992 h 3.6758 c 4.4102,0 8.3867,-2.4453 10.383,-6.3789 1.9922,-3.9336 1.6094,-8.5859 -0.99609,-12.145 l -35.883,-48.949 c -2.1641,-2.957 -5.5078,-4.6875 -9.168,-4.7578 -3.6719,-0.0234 -7.0703,1.5391 -9.3438,4.4141 l -38.758,48.953 c -2.793,3.5312 -3.3086,8.2422 -1.3516,12.293 1.9609,4.0508 5.9766,6.5703 10.477,6.5703 h 4.9141 l -32.906,41.562 c -3.5,4.4219 -4.1484,10.328 -1.6914,15.406 2.4336,5.0352 7.4023,8.1797 12.98,8.2344 l -25.086,31.691 c -4.0391,5.1016 -4.7812,11.91 -1.9492,17.766 2.832,5.8516 8.6328,9.4922 15.141,9.4922 h 49.105 v 13.598 c -30.805,2.2969 -62.871,15.395 -71.695,21.273 l 5.2539,7.8789 c 8.1875,-5.457 49.812,-22.32 82.285,-19.824 12.586,0.96094 26.105,3.7109 40.41,6.625 17.957,3.6562 36.523,7.4414 54.031,7.6523 16.406,0.25 28.191,-3.375 41.875,-7.5156 17.633,-5.332 39.574,-11.969 80.82,-12.797 12.168,0.0156 22.375,0.71094 30.75,1.668 0.375,0.0469 0.77344,0.082 1.1406,0.12891 0.32031,0.0391 0.60547,0.082 0.92188,0.11719 42.652,5.9805 67.328,23.609 67.633,23.824 l 5.582,-7.6484 c -0.95312,-0.69531 -14.902,-10.594 -39.652,-18.34 z m -279.34,70.012 -13.473,-1.168 V 472.453 H 265.47 Z M 247.263,462.98 h -53.844 c -2.8828,0 -5.3555,-1.5469 -6.6094,-4.1445 -1.2539,-2.5938 -0.9375,-5.5 0.85156,-7.7617 l 31.168,-39.363 c 1.1289,-1.4219 1.3398,-3.3672 0.55078,-5 -0.78906,-1.6328 -2.4492,-2.6719 -4.2617,-2.6719 h -9.6406 c -2.0078,0 -3.7305,-1.0781 -4.6016,-2.8906 -0.875,-1.8086 -0.65234,-3.832 0.59375,-5.4023 l 38.98,-49.234 c 1.1289,-1.4219 1.3398,-3.3672 0.55078,-5 -0.78906,-1.6328 -2.4492,-2.6719 -4.2617,-2.6719 h -14.703 c -1.1836,0 -1.7305,-0.76562 -1.9492,-1.2227 -0.17969,-0.37109 -0.51172,-1.332 0.25,-2.293 l 38.758,-48.949 c 0.5625,-0.70703 1.2891,-0.82422 1.6992,-0.82422 h 0.043 c 0.39844,0.004 1.1562,0.13281 1.7031,0.88672 l 35.883,48.953 c 0.71094,0.96484 0.36328,1.9023 0.18359,2.2578 -0.22266,0.44531 -0.77734,1.1875 -1.9336,1.1875 h -13.02 c -1.7852,0 -3.418,1.0039 -4.2227,2.5938 -0.80469,1.5898 -0.64844,3.5 0.40234,4.9375 l 36.305,49.527 c 1.1641,1.5859 1.3242,3.582 0.4375,5.3359 -0.89062,1.7578 -2.5938,2.8047 -4.5625,2.8047 h -7.3164 c -1.7852,0 -3.418,1.0039 -4.2227,2.5938 -0.80469,1.5898 -0.64844,3.5 0.40234,4.9375 l 29.109,39.719 c 1.6719,2.2773 1.9023,5.1445 0.625,7.6641 -1.2773,2.5195 -3.7266,4.0273 -6.5508,4.0273 h -53.848 l -22.949,0.008 z m 312.55,-63.008 c 1.6797,1.6875 1.6797,4.4297 0,6.1133 l -2.4727,2.4727 c -1.6211,1.6211 -4.4961,1.6211 -6.1133,0 l -72.316,-72.32 8.582,-8.582 z m -76.344,-98.848 c 0.84375,-0.84375 1.9492,-1.2656 3.0586,-1.2656 1.1016,0 2.2109,0.42188 3.0547,1.2578 l 2.4727,2.4727 c 1.6797,1.6797 1.6797,4.4297 0,6.1133 l -4.5508,4.5508 -8.582,-8.582 z m -11.254,11.25 8.582,8.582 -8.582,8.582 -8.582,-8.582 z m -19.832,-8.7812 2.4688,-2.4688 c 0.84375,-0.84375 1.9492,-1.2656 3.0586,-1.2656 1.1094,0 2.2148,0.42188 3.0586,1.2656 l 4.5547,4.5547 -8.582,8.582 -4.5508,-4.5508 c -1.6953,-1.6875 -1.6953,-4.4297 -0.008,-6.1172 z m -45.391,25.375 h 11.324 v 23.91 l -11.324,11.324 z m -4.918,70.715 -8.875,8.875 c -1.6133,1.6211 -4.4961,1.6211 -6.1133,0 l -2.4727,-2.4727 c -1.6797,-1.6875 -1.6797,-4.4297 0,-6.1133 l 20.984,-20.984 c 0,0 0.004,0 0.004,-0.004 l 51.332,-51.332 8.0898,8.0898 z m 130.45,86.48 c -4.7695,-1.3086 -12.398,-2.9844 -22.863,-4.2852 -0.70703,-0.0977 -1.457,-0.16016 -2.168,-0.25 -1.2734,-0.14844 -2.4961,-0.29688 -3.8516,-0.42969 -8.7383,-0.96094 -18.066,-1.5 -28.105,-1.3203 h -0.0742 -0.32031 c -29.215,0 -51.043,4.4297 -60.973,6.9062 l -3.8789,-81.906 61.453,-61.453 63.941,63.008 z"
       id="path690"
       style="fill:#008000" />
    <path
       d="m 448.27,411.08 c -1.3086,0 -2.3672,1.0625 -2.3672,2.3672 v 14.191 c 0,1.3086 1.0625,2.3672 2.3672,2.3672 h 22.234 c 1.3086,0 2.3672,-1.0625 2.3672,-2.3672 v -14.191 c 0,-1.3086 -1.0625,-2.3672 -2.3672,-2.3672 z m 19.867,14.195 h -17.5 v -9.457 h 17.5 z"
       id="path692"
       style="fill:#008000" />
    <path
       d="m 478.11,430.01 h 22.238 c 1.3086,0 2.3672,-1.0625 2.3672,-2.3672 v -14.191 c 0,-1.3086 -1.0625,-2.3672 -2.3672,-2.3672 H 478.11 c -1.3086,0 -2.3672,1.0625 -2.3672,2.3672 v 14.191 c 0,1.3125 1.0547,2.3672 2.3672,2.3672 z m 2.3672,-14.191 h 17.504 v 9.457 h -17.504 z"
       id="path694"
       style="fill:#008000" />
    <path
       d="m 470.51,432.41 h -22.234 c -1.3086,0 -2.3672,1.0625 -2.3672,2.3672 v 14.191 c 0,1.3086 1.0625,2.3672 2.3672,2.3672 h 22.234 c 1.3086,0 2.3672,-1.0625 2.3672,-2.3672 v -14.191 c 0.004,-1.3125 -1.0586,-2.3672 -2.3672,-2.3672 z m -2.3672,14.188 h -17.5 v -9.457 h 17.5 z"
       id="path696"
       style="fill:#008000" />
    <path
       d="m 478.11,451.33 h 22.238 c 1.3086,0 2.3672,-1.0625 2.3672,-2.3672 v -14.191 c 0,-1.3086 -1.0625,-2.3672 -2.3672,-2.3672 H 478.11 c -1.3086,0 -2.3672,1.0625 -2.3672,2.3672 v 14.191 c 0,1.3125 1.0547,2.3672 2.3672,2.3672 z m 2.3672,-14.188 h 17.504 v 9.457 h -17.504 z"
       id="path698"
       style="fill:#008000" />
    <path
       d="m 414.6,288.88 c 0.42578,-2.125 1.1523,-4.207 1.9414,-6.2422 0.38672,-1.0234 0.89063,-2 1.375,-2.9844 l 0.83203,-1.5312 0.85547,-1.3828 c 1.1953,-1.9688 2.75,-4 4.1758,-6.4961 1.4922,-2.4688 2.5469,-5.5156 2.9883,-8.4102 0.0742,-0.76172 0.1875,-1.3633 0.21484,-2.2266 0.0156,-0.62891 0.0508,-1.0859 -0.0156,-1.9102 -0.0742,-1.5352 -0.27344,-2.793 -0.55469,-4.0586 -0.51953,-2.5039 -1.4727,-4.6875 -2.4961,-6.543 -2.0234,-3.7383 -4.4531,-6.1758 -6.1758,-7.7617 -1.7578,-1.5664 -2.8789,-2.3008 -2.8789,-2.3008 0,0 0.48438,1.2266 1.332,3.375 0.80859,2.1133 1.918,5.1289 2.6445,8.6133 0.33984,1.7539 0.53516,3.6172 0.5625,5.5 0.008,0.92969 -0.0742,1.9453 -0.21875,2.7266 l -0.26563,1.6016 c -0.0469,0.32031 -0.22266,0.88672 -0.31641,1.3164 -0.51562,1.8438 -1.457,3.4336 -2.6445,5.2656 -1.2344,1.8125 -2.8242,3.8711 -4.3555,6.2617 l -1.1289,1.9258 -0.96484,1.875 c -0.64452,1.3164 -1.16019,2.6836 -1.6016,4.0547 -0.91797,2.7344 -1.3125,5.5352 -1.543,8.1875 -0.39453,5.3281 0.40234,10.164 1.5117,14.066 1.0742,3.918 2.5586,6.957 3.6094,9.0469 1.1367,2.0156 1.8711,3.1445 1.8711,3.1445 0,0 0.0234,-1.3438 -0.0664,-3.6602 -0.0156,-2.2812 -0.11719,-5.4883 -0.0469,-9.2344 0.13672,-3.7383 0.43359,-7.9805 1.3594,-12.219 z"
       id="path700"
       style="fill:#008000" />
  </g>
</svg>
