<?xml version="1.0" encoding="UTF-8"?>
<svg width="752pt" height="752pt" version="1.1" viewBox="0 0 752 752" xmlns="http://www.w3.org/2000/svg">
 <defs>
  <clipPath id="e">
   <path d="m139.21 360h158.79v159h-158.79z"/>
  </clipPath>
  <clipPath id="d">
   <path d="m337 171h275.79v348h-275.79z"/>
  </clipPath>
  <clipPath id="c">
   <path d="m597 581h15.793v25h-15.793z"/>
  </clipPath>
  <clipPath id="b">
   <path d="m139.21 581h15.789v25h-15.789z"/>
  </clipPath>
  <clipPath id="a">
   <path d="m139.21 155h158.79v104h-158.79z"/>
  </clipPath>
 </defs>
 <path d="m376 0c-49.375 0-98.27 9.7266-143.89 28.621-45.621 18.895-87.07 46.59-121.98 81.508-34.918 34.914-62.613 76.363-81.508 121.98-18.895 45.617-28.621 94.512-28.621 143.89 0 99.723 39.617 195.36 110.13 265.87 70.516 70.516 166.15 110.13 265.87 110.13 99.723 0 195.36-39.617 265.87-110.13 70.512-70.512 110.13-166.15 110.13-265.87 0-99.719-39.613-195.36-110.12-265.87-70.516-70.516-166.15-110.13-265.88-110.13zm0 42.465c43.316 0 86.207 8.625 126.23 25.387 40.02 16.762 76.379 41.332 107.01 72.305s54.926 67.738 71.5 108.21c16.578 40.465 25.105 83.84 25.105 127.64 0 88.461-34.75 173.3-96.605 235.84-61.859 62.551-145.75 97.691-233.23 97.691-43.312 0-86.207-8.625-126.22-25.387-40.02-16.762-76.383-41.332-107.01-72.301-30.629-30.973-54.926-67.742-71.504-108.21-16.574-40.469-25.105-83.84-25.105-127.64s8.5312-87.172 25.105-127.64c16.578-40.469 40.871-77.238 71.5-108.21 30.629-30.969 66.992-55.539 107.01-72.301 40.02-16.762 82.914-25.387 126.23-25.387z" fill="#007235"/>
 <g clip-path="url(#e)">
  <path d="m218.14 376.13c-34.816 0-63.145 28.328-63.145 63.145 0 34.816 28.328 63.141 63.145 63.141s63.145-28.324 63.145-63.141c0-34.816-28.328-63.145-63.145-63.145m0 142.07c-43.523 0-78.93-35.41-78.93-78.93 0-43.523 35.406-78.934 78.93-78.934s78.93 35.41 78.93 78.934c0 43.52-35.406 78.93-78.93 78.93" fill="#007335" fill-rule="evenodd"/>
 </g>
 <path d="m218.14 494.52c-2.0195 0-4.0391-0.77344-5.5781-2.3125l-23.68-23.68c-3.0859-3.0859-3.0859-8.0742 0-11.16 3.0859-3.0859 8.0742-3.0859 11.16 0l23.68 23.68c3.0859 3.0859 3.0859 8.0742 0 11.16-1.5391 1.5391-3.5625 2.3125-5.582 2.3125" fill="#007335" fill-rule="evenodd"/>
 <path d="m218.14 494.52c-2.0195 0-4.0391-0.77344-5.5781-2.3125-3.0898-3.0859-3.0898-8.0742 0-11.16l23.676-23.68c3.0859-3.0859 8.0742-3.0859 11.164 0 3.0859 3.0859 3.0859 8.0742 0 11.16l-23.68 23.68c-1.5391 1.5391-3.5625 2.3125-5.582 2.3125" fill="#007335" fill-rule="evenodd"/>
 <path d="m218.14 605.02c-4.3555 0-7.8906-3.5352-7.8906-7.8906v-110.5c0-4.3555 3.5352-7.8906 7.8906-7.8906s7.8945 3.5352 7.8945 7.8906v110.5c0 4.3555-3.5391 7.8906-7.8945 7.8906" fill="#007335" fill-rule="evenodd"/>
 <path d="m320.75 494.52c-2.0195 0-4.0391-0.77344-5.5781-2.3125l-15.789-15.785c-3.0859-3.0859-3.0859-8.0742 0-11.164 3.0859-3.0859 8.0742-3.0859 11.16 0l15.789 15.789c3.0859 3.0859 3.0859 8.0742 0 11.16-1.5391 1.5391-3.5625 2.3125-5.582 2.3125" fill="#007335" fill-rule="evenodd"/>
 <path d="m320.75 494.52c-2.0195 0-4.0391-0.77344-5.5781-2.3125-3.0898-3.0859-3.0898-8.0742 0-11.16l15.785-15.789c3.0859-3.0859 8.0742-3.0859 11.16 0 3.0859 3.0898 3.0859 8.0781 0 11.164l-15.785 15.785c-1.5391 1.5391-3.5625 2.3125-5.582 2.3125" fill="#007335" fill-rule="evenodd"/>
 <path d="m320.75 605.02c-4.3555 0-7.8945-3.5352-7.8945-7.8906v-110.5c0-4.3555 3.5391-7.8906 7.8945-7.8906s7.8945 3.5352 7.8945 7.8906v110.5c0 4.3555-3.5391 7.8906-7.8945 7.8906" fill="#007335" fill-rule="evenodd"/>
 <path d="m418.57 518.2h-192.54c-4.3555 0-7.8945-3.5391-7.8945-7.8945 0-4.3555 3.5391-7.8945 7.8945-7.8945h180.53l-94.219-218.1-47.672 95.34c-1.9492 3.8984-6.6875 5.4844-10.594 3.5352-3.8984-1.957-5.4766-6.6914-3.5273-10.594l55.25-110.5c1.375-2.7461 4.1602-4.5078 7.2773-4.3633 3.0703 0.085937 5.8086 1.9492 7.0273 4.7656l105.71 244.68c1.0469 2.4375 0.8125 5.2422-0.65625 7.457-1.4531 2.2266-3.9375 3.5625-6.5898 3.5625" fill="#007335" fill-rule="evenodd"/>
 <path d="m462.82 312.98c-2.0195 0-4.0391-0.77344-5.5781-2.3125l-10.207-10.207-10.207 10.207c-3.0859 3.0859-8.0742 3.0859-11.16 0l-10.207-10.207-10.203 10.207c-3.0859 3.0859-8.0742 3.0859-11.16 0l-22.695-22.695c-3.0859-3.0859-3.0859-8.0742 0-11.16 3.0859-3.0859 8.0742-3.0859 11.164 0l17.109 17.113 10.207-10.207c3.0859-3.0859 8.0742-3.0859 11.16 0l10.207 10.207 10.203-10.207c3.0859-3.0859 8.0742-3.0859 11.16 0l10.207 10.207 17.113-17.113c3.0859-3.0859 8.0742-3.0859 11.16 0 3.0859 3.0859 3.0859 8.0742 0 11.16l-22.691 22.695c-1.5391 1.5391-3.5625 2.3125-5.582 2.3125" fill="#007335" fill-rule="evenodd"/>
 <g clip-path="url(#d)">
  <path d="m418.57 518.21c-3.0547 0-5.9609-1.7852-7.2461-4.7695l-72.758-168.39c-0.94141-2.1875-0.85156-4.6836 0.25-6.7891l85.445-163.11c2.7227-5.2109 11.262-5.2109 13.984 0l173.65 331.51c2.0195 3.8594 0.52734 8.625-3.332 10.645-3.8516 2.0234-8.6289 0.53906-10.656-3.3281l-166.65-318.15-76.695 146.42 71.25 164.94c1.7344 4-0.11328 8.6406-4.1133 10.371-1.0195 0.44141-2.0859 0.65625-3.125 0.65625" fill="#007335" fill-rule="evenodd"/>
 </g>
 <path d="m597 218.27c-4.3555 0-7.8906-3.5352-7.8906-7.8906 0-8.707-7.082-15.785-15.785-15.785h-63.145c-13.055 0-23.68-10.625-23.68-23.68 0-13.055 10.625-23.68 23.68-23.68h31.57c4.3594 0 7.8945 3.5352 7.8945 7.8945 0 4.3555-3.5352 7.8906-7.8945 7.8906h-31.57c-4.3516 0-7.8945 3.543-7.8945 7.8945 0 4.3477 3.543 7.8906 7.8945 7.8906h63.145c17.41 0 31.57 14.16 31.57 31.574 0 4.3555-3.5352 7.8906-7.8945 7.8906" fill="#007335" fill-rule="evenodd"/>
 <g clip-path="url(#c)">
  <path d="m604.9 605.02c-4.3555 0-7.8945-3.5352-7.8945-7.8906v-7.8945c0-4.3555 3.5391-7.8906 7.8945-7.8906 4.3555 0 7.8945 3.5352 7.8945 7.8906v7.8945c0 4.3555-3.5391 7.8906-7.8945 7.8906" fill="#007335" fill-rule="evenodd"/>
 </g>
 <path d="m573.33 605.02c-4.3594 0-7.8945-3.5352-7.8945-7.8906v-7.8945c0-4.3555 3.5352-7.8906 7.8945-7.8906 4.3555 0 7.8906 3.5352 7.8906 7.8906v7.8945c0 4.3555-3.5352 7.8906-7.8906 7.8906" fill="#007335" fill-rule="evenodd"/>
 <path d="m541.75 605.02c-4.3555 0-7.8906-3.5352-7.8906-7.8906v-7.8945c0-4.3555 3.5352-7.8906 7.8906-7.8906 4.3594 0 7.8945 3.5352 7.8945 7.8906v7.8945c0 4.3555-3.5352 7.8906-7.8945 7.8906" fill="#007335" fill-rule="evenodd"/>
 <path d="m510.18 605.02c-4.3594 0-7.8945-3.5352-7.8945-7.8906v-7.8945c0-4.3555 3.5352-7.8906 7.8945-7.8906 4.3555 0 7.8906 3.5352 7.8906 7.8906v7.8945c0 4.3555-3.5352 7.8906-7.8906 7.8906" fill="#007335" fill-rule="evenodd"/>
 <path d="m478.61 605.02c-4.3555 0-7.8906-3.5352-7.8906-7.8906v-7.8945c0-4.3555 3.5352-7.8906 7.8906-7.8906 4.3594 0 7.8945 3.5352 7.8945 7.8906v7.8945c0 4.3555-3.5352 7.8906-7.8945 7.8906" fill="#007335" fill-rule="evenodd"/>
 <path d="m447.04 605.02c-4.3594 0-7.8945-3.5352-7.8945-7.8906v-7.8945c0-4.3555 3.5352-7.8906 7.8945-7.8906 4.3555 0 7.8906 3.5352 7.8906 7.8906v7.8945c0 4.3555-3.5352 7.8906-7.8906 7.8906" fill="#007335" fill-rule="evenodd"/>
 <path d="m415.46 605.02c-4.3555 0-7.8906-3.5352-7.8906-7.8906v-7.8945c0-4.3555 3.5352-7.8906 7.8906-7.8906 4.3594 0 7.8945 3.5352 7.8945 7.8906v7.8945c0 4.3555-3.5352 7.8906-7.8945 7.8906" fill="#007335" fill-rule="evenodd"/>
 <path d="m383.89 605.02c-4.3555 0-7.8945-3.5352-7.8945-7.8906v-7.8945c0-4.3555 3.5391-7.8906 7.8945-7.8906s7.8945 3.5352 7.8945 7.8906v7.8945c0 4.3555-3.5391 7.8906-7.8945 7.8906" fill="#007335" fill-rule="evenodd"/>
 <path d="m352.32 605.02c-4.3594 0-7.8945-3.5352-7.8945-7.8906v-7.8945c0-4.3555 3.5352-7.8906 7.8945-7.8906 4.3555 0 7.8906 3.5352 7.8906 7.8906v7.8945c0 4.3555-3.5352 7.8906-7.8906 7.8906" fill="#007335" fill-rule="evenodd"/>
 <path d="m289.18 605.02c-4.3594 0-7.8945-3.5352-7.8945-7.8906v-7.8945c0-4.3555 3.5352-7.8906 7.8945-7.8906 4.3555 0 7.8906 3.5352 7.8906 7.8906v7.8945c0 4.3555-3.5352 7.8906-7.8906 7.8906" fill="#007335" fill-rule="evenodd"/>
 <path d="m249.71 605.02c-4.3594 0-7.8945-3.5352-7.8945-7.8906v-7.8945c0-4.3555 3.5352-7.8906 7.8945-7.8906 4.3555 0 7.8906 3.5352 7.8906 7.8906v7.8945c0 4.3555-3.5352 7.8906-7.8906 7.8906" fill="#007335" fill-rule="evenodd"/>
 <path d="m178.68 605.02c-4.3555 0-7.8945-3.5352-7.8945-7.8906v-7.8945c0-4.3555 3.5391-7.8906 7.8945-7.8906s7.8945 3.5352 7.8945 7.8906v7.8945c0 4.3555-3.5391 7.8906-7.8945 7.8906" fill="#007335" fill-rule="evenodd"/>
 <g clip-path="url(#b)">
  <path d="m147.11 605.02c-4.3594 0-7.8945-3.5352-7.8945-7.8906v-7.8945c0-4.3555 3.5352-7.8906 7.8945-7.8906 4.3555 0 7.8906 3.5352 7.8906 7.8906v7.8945c0 4.3555-3.5352 7.8906-7.8906 7.8906" fill="#007335" fill-rule="evenodd"/>
 </g>
 <g clip-path="url(#a)">
  <path d="m224.06 170.91c-28.242 0-39.918 20.875-40.406 21.77-1.375 2.5391-4.0664 4.168-6.9531 4.168-11.973 0-21.707 11-21.707 24.523 0 7.8672 2.3672 21.074 18.258 21.074h91.746c6.7656 0 16.285-3.5234 16.285-11.352 0-8.1602-5.7539-14.801-12.824-14.801h-2.9609c-4.3594 0-7.8945-3.5352-7.8945-7.8906 0-32.625-21.02-37.492-33.543-37.492m40.938 87.32h-91.746c-20.68 0-34.043-14.477-34.043-36.859 0-20.586 14.43-37.629 32.984-40.027 5.7617-8.1836 21.855-26.219 51.867-26.219 22.266 0 45.953 12.191 49 45.777 13.598 2.3594 24.008 15.004 24.008 30.191 0 16.984-16.297 27.137-32.07 27.137" fill="#007335" fill-rule="evenodd"/>
 </g>
</svg>
