<?xml version="1.0" encoding="UTF-8"?>
<svg width="752pt" height="752pt" version="1.1" viewBox="0 0 752 752" xmlns="http://www.w3.org/2000/svg">
 <g>
  <path d="m376 0c-49.375 0-98.27 9.7266-143.89 28.621-45.621 18.895-87.07 46.59-121.98 81.508-34.918 34.914-62.613 76.363-81.508 121.98-18.895 45.617-28.621 94.512-28.621 143.89 0 99.723 39.617 195.36 110.13 265.87 70.516 70.516 166.15 110.13 265.87 110.13 99.723 0 195.36-39.617 265.87-110.13 70.512-70.512 110.13-166.15 110.13-265.87 0-99.719-39.613-195.36-110.12-265.87-70.516-70.516-166.15-110.13-265.88-110.13zm0 42.465c43.316 0 86.207 8.625 126.23 25.387 40.02 16.762 76.379 41.332 107.01 72.305s54.926 67.738 71.5 108.21c16.578 40.465 25.105 83.84 25.105 127.64 0 88.461-34.75 173.3-96.605 235.84-61.859 62.551-145.75 97.691-233.23 97.691-43.312 0-86.207-8.625-126.22-25.387-40.02-16.762-76.383-41.332-107.01-72.301-30.629-30.973-54.926-67.742-71.504-108.21-16.574-40.469-25.105-83.84-25.105-127.64s8.5312-87.172 25.105-127.64c16.578-40.469 40.871-77.238 71.5-108.21 30.629-30.969 66.992-55.539 107.01-72.301 40.02-16.762 82.914-25.387 126.23-25.387z" fill="#007235"/>
  <path d="m258.49 200.78c-3.3555 0.32422-6.2852 2.4102-7.6953 5.4766l-46.32 97.676-34.336 48.395c-1.1445 1.5938-1.7656 3.5078-1.7734 5.4727v73.852c0 5.2305 4.2383 9.4688 9.4688 9.4688h396.33c5.2305 0 9.4727-4.2383 9.4727-9.4688v-73.852c-0.007813-1.9648-0.62891-3.8789-1.7773-5.4727l-34.332-48.395-46.324-97.676c-1.5508-3.3398-4.8984-5.4766-8.582-5.4766h-233.24c-0.29687-0.015625-0.59375-0.015625-0.89062 0zm6.8086 18.941h221.4l43.957 92.941c0.25 0.51953 0.54688 1.0156 0.88672 1.4805l33.152 46.617v61.418h-377.39v-61.418l30.488-42.77h282.52c2.5352 0.035157 4.9805-0.94531 6.7852-2.7266 1.8047-1.7812 2.8203-4.2109 2.8203-6.7461s-1.0156-4.9648-2.8203-6.7461c-1.8047-1.7773-4.25-2.7617-6.7852-2.7266h-272.46zm47.949 22.348c-23.902 0-44.355 15.547-50.465 37.148-0.6875 2.4336-0.37891 5.0391 0.85547 7.2461 1.2344 2.207 3.2969 3.832 5.7305 4.5195s5.0391 0.37891 7.2461-0.85547c2.207-1.2383 3.832-3.2969 4.5195-5.7305 3.7578-13.297 16.438-23.383 32.113-23.383 15.68 0 28.516 10.129 32.266 23.383 0.59375 2.5156 2.1914 4.6797 4.4219 5.9883 2.2305 1.3086 4.9023 1.6484 7.3867 0.94141 2.4883-0.70703 4.5781-2.4023 5.7852-4.6875 1.207-2.2891 1.4297-4.9688 0.60938-7.4219-6.1211-21.641-26.562-37.148-50.469-37.148zm-69.852 114.84c-10.461 0-18.941 8.4805-18.941 18.941 0 10.465 8.4805 18.945 18.941 18.945 10.461 0 18.945-8.4805 18.945-18.945 0-10.461-8.4844-18.941-18.945-18.941zm265.21 0c-10.465 0-18.945 8.4805-18.945 18.941 0 10.465 8.4805 18.945 18.945 18.945 10.461 0 18.941-8.4805 18.941-18.945 0-10.461-8.4805-18.941-18.941-18.941zm-303.09 94.566c-4.8203 0.60938-8.4023 4.7656-8.2891 9.6211v44.25c0.003906 5.2305 4.2422 9.4727 9.4727 9.4727h58.754c5.2305 0 9.4727-4.2422 9.4727-9.4727v-44.25c0.035156-2.5352-0.94531-4.9805-2.7266-6.7852s-4.2109-2.8203-6.7461-2.8203c-2.5352 0-4.9648 1.0156-6.7461 2.8203-1.7773 1.8047-2.7617 4.25-2.7266 6.7852v34.777h-39.809v-34.777c0.0625-2.7578-1.0742-5.4062-3.1211-7.2539s-4.7969-2.7109-7.5352-2.3672zm279.86 0c-4.8203 0.60938-8.3984 4.7656-8.2852 9.6211v44.25c0 5.2305 4.2383 9.4727 9.4727 9.4727h58.75c5.2344 0 9.4727-4.2422 9.4727-9.4727v-44.25c0.035156-2.5352-0.94531-4.9805-2.7266-6.7852-1.7773-1.8047-4.207-2.8203-6.7461-2.8203-2.5352 0-4.9648 1.0156-6.7422 2.8203-1.7812 1.8047-2.7617 4.25-2.7266 6.7852v34.777h-39.812v-34.777c0.066406-2.7578-1.0742-5.4062-3.1211-7.2539s-4.7969-2.7109-7.5352-2.3672zm-309.16 80.805c-2.5156 0.12109-4.875 1.2305-6.5703 3.0898-1.6914 1.8594-2.5781 4.3164-2.4609 6.8281 0.11719 2.5117 1.2305 4.875 3.0898 6.5664 1.8594 1.6953 4.3164 2.5781 6.8281 2.4609h397.81c2.5352 0.035157 4.9766-0.94531 6.7852-2.7266 1.8047-1.7812 2.8203-4.2109 2.8203-6.7461s-1.0156-4.9648-2.8203-6.7461c-1.8086-1.7773-4.25-2.7617-6.7852-2.7266h-397.81c-0.29688-0.011719-0.59375-0.011719-0.88672 0z" fill="#007335"/>
 </g>
</svg>
