<?xml version="1.0" encoding="UTF-8"?>
<svg width="752pt" height="752pt" version="1.1" viewBox="0 0 752 752" xmlns="http://www.w3.org/2000/svg">
 <g>
  <path d="m376 0c-49.375 0-98.27 9.7266-143.89 28.621-45.621 18.895-87.07 46.59-121.98 81.508-34.918 34.914-62.613 76.363-81.508 121.98-18.895 45.617-28.621 94.512-28.621 143.89 0 99.723 39.617 195.36 110.13 265.87 70.516 70.516 166.15 110.13 265.87 110.13 99.723 0 195.36-39.617 265.87-110.13 70.512-70.512 110.13-166.15 110.13-265.87 0-99.719-39.613-195.36-110.12-265.87-70.516-70.516-166.15-110.13-265.88-110.13zm0 42.465c43.316 0 86.207 8.625 126.23 25.387 40.02 16.762 76.379 41.332 107.01 72.305s54.926 67.738 71.5 108.21c16.578 40.465 25.105 83.84 25.105 127.64 0 88.461-34.75 173.3-96.605 235.84-61.859 62.551-145.75 97.691-233.23 97.691-43.312 0-86.207-8.625-126.22-25.387-40.02-16.762-76.383-41.332-107.01-72.301-30.629-30.973-54.926-67.742-71.504-108.21-16.574-40.469-25.105-83.84-25.105-127.64s8.5312-87.172 25.105-127.64c16.578-40.469 40.871-77.238 71.5-108.21 30.629-30.969 66.992-55.539 107.01-72.301 40.02-16.762 82.914-25.387 126.23-25.387z"/>
  <path d="m496.54 243.06-8.582 8.582v-60.008c-0.015626-6.3711-2.5547-12.48-7.0664-16.98-4.5078-4.5-10.621-7.0273-16.992-7.0312h-150.92c-6.3711 0.003906-12.48 2.5312-16.988 7.0312-4.5117 4.5039-7.0508 10.609-7.0625 16.98v81.734c0 3.9258 3.1797 7.1055 7.1016 7.1055 3.9258 0 7.1055-3.1797 7.1055-7.1055v-81.734c0.019531-5.4219 4.4219-9.8086 9.8438-9.8047h150.92c5.4258-0.003906 9.8281 4.3789 9.8516 9.8047v138.32l-1.8008 1.793c-4.2422 4.2695-6.6992 9.9961-6.8711 16.016s1.9531 11.875 5.9492 16.383c0.21875 0.32031 0.46094 0.61719 0.73438 0.89453 0.070313 0.070312 0.11719 0.16016 0.1875 0.23828 3.082 3.0625 6.9531 5.2109 11.184 6.207l-11.18 11.18h-0.003906c-4.2461 4.2773-6.7031 10.008-6.8711 16.031-0.16797 6.0234 1.9648 11.883 5.9688 16.387 0.10547 0.14453 0.21875 0.28516 0.33984 0.41797 0.20312 0.22266 0.35156 0.47266 0.5625 0.69531 4.2578 4.2539 9.9844 6.7109 16 6.8711l-15.996 15.996h-0.003906c-4.4375 4.4492-6.9336 10.48-6.9336 16.766 0 6.2852 2.4961 12.312 6.9336 16.762 0.57422 0.52344 1.1758 1.0156 1.8008 1.4766v17.754c-0.007812 5.4375-4.4141 9.8438-9.8516 9.8477h-113.53c-3.9219 0-7.1055 3.1797-7.1055 7.1016 0 3.9258 3.1836 7.1055 7.1055 7.1055h71.137c-12.895 12.859-37.762 27.23-85.121 29.098-4.6602 0.15625-9.0586 2.1797-12.211 5.6133l-19.926 21.898c-1.2773 1.3945-1.9453 3.2344-1.8594 5.1211s0.91797 3.6602 2.3125 4.9297c1.3984 1.2734 3.2422 1.9375 5.125 1.8438 1.8867-0.089843 3.6562-0.92578 4.9258-2.3281l19.934-21.902c0.57812-0.61328 1.3789-0.96484 2.2188-0.98047 63.754-2.5156 91.578-26.836 103.18-43.293h23.82c6.3789-0.007812 12.492-2.543 17.004-7.0508 4.5078-4.5117 7.0469-10.625 7.0547-17.004v-12.359c0.25391 0 0.50391 0.074218 0.75781 0.074218 6.293 0.019532 12.328-2.4844 16.766-6.9453l16.617-16.613c4.3945-4.375 6.8984-10.297 6.9688-16.496 0.070313-6.2031-2.2969-12.18-6.5938-16.652-4.2969-4.4727-10.176-7.0742-16.371-7.2539l15.996-15.992c4.0039-3.9727 6.457-9.2461 6.9102-14.871 0.45312-5.6211-1.1211-11.223-4.4414-15.781-3.3203-4.5625-8.1602-7.7852-13.652-9.0859l11.18-11.18h0.003906c4.4453-4.4492 6.9414-10.48 6.9414-16.766 0-6.2891-2.4961-12.32-6.9414-16.766-4.4453-4.4492-10.477-6.9453-16.766-6.9492-0.62891 0-1.2266 0.13281-1.8477 0.17969l29.133-29.164 0.003906 0.003906c6.457-6.4453 8.9844-15.848 6.6289-24.66-2.3516-8.8164-9.2305-15.703-18.039-18.074-8.8125-2.3672-18.215 0.14453-24.672 6.5898zm18.293 196.15c0.003906 2.5195-0.99609 4.9375-2.7812 6.7188l-16.617 16.613c-3.7617 3.5898-9.6758 3.5898-13.438 0-3.7031-3.7109-3.7031-9.7227 0-13.434l16.617-16.617c2.7148-2.7188 6.8047-3.5352 10.355-2.0625 3.5508 1.4727 5.8672 4.9375 5.8633 8.7812zm0-56.395c0.003906 2.5195-0.99609 4.9414-2.7812 6.7227l-16.617 16.613c-3.7578 3.5742-9.6602 3.5742-13.422 0l-0.027344-0.03125v-0.003906c-3.6875-3.7109-3.6875-9.7031 0-13.41l16.617-16.613c2.7188-2.7188 6.8047-3.5352 10.359-2.0625 3.5508 1.4688 5.8633 4.9375 5.8633 8.7812zm-2.7812-57.641c3.707 3.7148 3.707 9.7266 0 13.441l-16.617 16.613c-3.7617 3.582-9.6758 3.582-13.438 0-3.7031-3.7148-3.7031-9.7266 0-13.441l16.617-16.613c1.7812-1.7812 4.1992-2.7852 6.7188-2.7852 2.5195 0 4.9375 1.0039 6.7188 2.7852zm10.555-56.055-34.652 34.691 0.003907-32.082 18.625-18.625v-0.003906c2.1094-2.1953 5.0156-3.4531 8.0586-3.4844 3.0469-0.03125 5.9766 1.1641 8.1328 3.3164 2.1523 2.1562 3.3516 5.0859 3.3203 8.1289-0.03125 3.0469-1.2891 5.9531-3.4844 8.0625z"/>
  <path d="m445.08 443.11c0-3.9258-3.1797-7.1055-7.1055-7.1055h-91.297c-3.9219 0-7.1016 3.1797-7.1016 7.1055 0 3.9219 3.1797 7.1016 7.1016 7.1016h91.297c3.9258 0 7.1055-3.1797 7.1055-7.1016z"/>
  <path d="m379.79 469.14c-3.9219 0-7.1016 3.1797-7.1016 7.1055 0 3.9219 3.1797 7.1016 7.1016 7.1016h25.055c3.9219 0 7.1016-3.1797 7.1016-7.1016 0-3.9258-3.1797-7.1055-7.1016-7.1055z"/>
  <path d="m293.43 410.03c11.184 10.527 19.199 23.977 23.133 38.824 3.9336 14.844 3.6328 30.496-0.875 45.18-1.3281 3.668 0.54688 7.7188 4.2031 9.0781s7.7227-0.48438 9.1133-4.1289c5.457-17.234 5.9531-35.656 1.4336-53.16-4.5234-17.504-13.883-33.383-27.008-45.816-0.32812-0.37109-0.40625-0.90234-0.19922-1.3555 6.9062-16.23 21.941-56.629 12.398-81.395-1.6562-3.8359-3.6406-7.5273-5.9336-11.023-2.168-3.2852-5.207-5.8945-8.7812-7.543-3.5703-1.6445-7.5312-2.2617-11.434-1.7773-3.9648 0.45313-7.7188 2.0039-10.848 4.4766-3.1289 2.4727-5.5 5.7695-6.8555 9.5234l-39.199 107.88c-1.6484 4.5586-2.2031 9.4375-1.6133 14.246l3.4609 28.164c0.61719 4.9141-1.0156 9.8438-4.4492 13.418l-16.203 16.973h0.003906c-2.7109 2.8359-2.6055 7.3359 0.23047 10.043 2.8398 2.7109 7.3359 2.6055 10.047-0.23047l16.199-16.953c6.3789-6.6523 9.418-15.82 8.2734-24.965l-3.4648-28.164c-0.3125-2.5859-0.015625-5.207 0.87109-7.6562l39.195-107.87h-0.003906c0.93359-2.6094 3.2773-4.4531 6.0312-4.7383 2.6289-0.36719 5.2305 0.82031 6.6758 3.0469 1.7734 2.6875 3.3281 5.5078 4.6562 8.4414 7.8125 20.293-7.4297 59.125-12.285 70.562v0.003906c-1.2148 2.8164-1.5586 5.9375-0.98438 8.9531 0.57812 3.0156 2.043 5.793 4.2109 7.9648z"/>
  <path d="m386.62 216.23c-17.996-0.050781-35.27 7.0781-47.992 19.809-1.3711 1.3203-2.1562 3.1367-2.1797 5.043-0.019531 1.9062 0.72656 3.7383 2.0703 5.0898 1.3438 1.3477 3.1719 2.1016 5.0781 2.0898s3.7266-0.78516 5.0547-2.1523c10.086-10.039 23.738-15.672 37.969-15.672 14.23 0 27.883 5.6328 37.969 15.672 1.3281 1.3672 3.1484 2.1406 5.0547 2.1523 1.9023 0.011719 3.7344-0.74219 5.0781-2.0898 1.3438-1.3516 2.0898-3.1836 2.0664-5.0898-0.019531-1.9062-0.80469-3.7227-2.1797-5.043-12.719-12.73-29.992-19.859-47.988-19.809z"/>
  <path d="m417.61 258.4c-7.6562-9.2148-19.012-14.543-30.992-14.543-11.98 0-23.34 5.3281-30.992 14.543-1.2656 1.4375-1.8945 3.3281-1.7461 5.2383 0.14453 1.9102 1.0586 3.6797 2.5312 4.9062 1.4688 1.2266 3.375 1.8086 5.2812 1.6094 1.9062-0.19531 3.6484-1.1562 4.8398-2.6562 4.9531-5.9766 12.312-9.4336 20.074-9.4336 7.7656 0 15.125 3.457 20.078 9.4336 2.5664 2.793 6.875 3.0781 9.7891 0.64844 2.9102-2.4336 3.3984-6.7227 1.1055-9.7461z"/>
  <path d="m387.46 304.89c3.3828-0.25 6.7227 0.91016 9.2188 3.207 2.4961 2.3008 3.9258 5.5312 3.9531 8.9219 0 3.9258 3.1797 7.1055 7.1016 7.1055 3.9258 0 7.1055-3.1797 7.1055-7.1055-0.011719-5.75-1.8984-11.34-5.375-15.918-3.4766-4.582-8.3555-7.9023-13.891-9.457v-6.4141c0-3.9258-3.1797-7.1055-7.1055-7.1055-3.9219 0-7.1016 3.1797-7.1016 7.1055v6.4766c-6.8906 2.0078-12.531 6.9805-15.387 13.562-1.9023 4.3008-2.6094 9.0352-2.0469 13.703 0.5625 4.6641 2.375 9.0938 5.2422 12.82 4.3359 6.1328 10.984 10.234 18.41 11.363 3.6445 0.67969 6.8555 2.8125 8.9023 5.9062 2.668 3.4648 3.2305 8.1133 1.4609 12.113-1.4688 3.4805-4.7578 5.8438-8.5234 6.125-0.31641 0.023437-0.64062 0.039063-0.94531 0.039063h-0.03125c-6.7148-0.015626-12.152-5.457-12.16-12.172 0-3.9219-3.1797-7.1055-7.1016-7.1055-3.9258 0-7.1055 3.1836-7.1055 7.1055 0.007813 5.7539 1.8945 11.348 5.375 15.93 3.4805 4.5781 8.3633 7.8984 13.906 9.4492v6.4219c0 3.9219 3.1797 7.1055 7.1016 7.1055 3.9219 0 7.1055-3.1836 7.1055-7.1055v-6.5078c6.8828-2.0078 12.516-6.9766 15.367-13.559 1.9023-4.2969 2.6094-9.0312 2.0469-13.699s-2.3711-9.0938-5.2383-12.82c-4.3438-6.1211-10.984-10.215-18.406-11.344-3.6445-0.67969-6.8594-2.8086-8.9062-5.9062-2.668-3.4609-3.2344-8.1055-1.4688-12.109 1.4609-3.4727 4.7383-5.8398 8.4961-6.1328z"/>
 </g>
</svg>
