<?xml version="1.0" encoding="UTF-8"?>
<svg width="752pt" height="752pt" version="1.1" viewBox="0 0 752 752" xmlns="http://www.w3.org/2000/svg">
 <g>
  <path d="m376 0c-49.375 0-98.27 9.7266-143.89 28.621-45.621 18.895-87.07 46.59-121.98 81.508-34.918 34.914-62.613 76.363-81.508 121.98-18.895 45.617-28.621 94.512-28.621 143.89 0 99.723 39.617 195.36 110.13 265.87 70.516 70.516 166.15 110.13 265.87 110.13 99.723 0 195.36-39.617 265.87-110.13 70.512-70.512 110.13-166.15 110.13-265.87 0-99.719-39.613-195.36-110.12-265.87-70.516-70.516-166.15-110.13-265.88-110.13zm0 42.465c43.316 0 86.207 8.625 126.23 25.387 40.02 16.762 76.379 41.332 107.01 72.305s54.926 67.738 71.5 108.21c16.578 40.465 25.105 83.84 25.105 127.64 0 88.461-34.75 173.3-96.605 235.84-61.859 62.551-145.75 97.691-233.23 97.691-43.312 0-86.207-8.625-126.22-25.387-40.02-16.762-76.383-41.332-107.01-72.301-30.629-30.973-54.926-67.742-71.504-108.21-16.574-40.469-25.105-83.84-25.105-127.64s8.5312-87.172 25.105-127.64c16.578-40.469 40.871-77.238 71.5-108.21 30.629-30.969 66.992-55.539 107.01-72.301 40.02-16.762 82.914-25.387 126.23-25.387z" fill="#007235"/>
  <path d="m494.4 277.34h-256.52v246.66c0 5.4609 4.4023 9.8672 9.8633 9.8672h236.79c5.4609 0 9.8672-4.4062 9.8672-9.8672zm0-19.734v-49.332c0-5.4609-4.4062-9.8633-9.8672-9.8633h-236.79c-5.4609 0-9.8633 4.4023-9.8633 9.8633v49.332zm-9.8672 295.99h-236.79c-16.359 0-29.598-13.238-29.598-29.598v-315.72c0-16.359 13.238-29.598 29.598-29.598h236.79c16.359 0 29.598 13.238 29.598 29.598v315.72c0 16.359-13.238 29.598-29.598 29.598zm-49.332-147.99c0-38.141-30.926-69.066-69.062-69.066-38.141 0-69.066 30.926-69.066 69.066 0 38.141 30.926 69.062 69.066 69.062 38.137 0 69.062-30.922 69.062-69.062zm19.73 0c0 49.035-39.758 88.797-88.793 88.797-49.039 0-88.797-39.762-88.797-88.797 0-49.039 39.758-88.797 88.797-88.797 49.035 0 88.793 39.758 88.793 88.797zm-118.39 0c0 5.4492-4.418 9.8633-9.8633 9.8633-5.4492 0-9.8672-4.4141-9.8672-9.8633 0-27.234 22.098-49.332 49.332-49.332 5.4492 0 9.8633 4.418 9.8633 9.8672s-4.4141 9.8633-9.8633 9.8633c-16.336 0-29.602 13.266-29.602 29.602zm-69.062-167.73c-5.4492 0-9.8672-4.418-9.8672-9.8672 0-5.4492 4.418-9.8672 9.8672-9.8672h19.73c5.4492 0 9.8672 4.418 9.8672 9.8672 0 5.4492-4.418 9.8672-9.8672 9.8672zm59.199 0c-5.4492 0-9.8672-4.418-9.8672-9.8672 0-5.4492 4.418-9.8672 9.8672-9.8672h19.73c5.4492 0 9.8672 4.418 9.8672 9.8672 0 5.4492-4.418 9.8672-9.8672 9.8672z" fill="#007335"/>
 </g>
</svg>
