<?xml version="1.0" encoding="UTF-8"?>
<svg width="752pt" height="752pt" version="1.1" viewBox="0 0 752 752" xmlns="http://www.w3.org/2000/svg">
 <g>
  <path d="m376 0c-49.375 0-98.27 9.7266-143.89 28.621-45.621 18.895-87.07 46.59-121.98 81.508-34.918 34.914-62.613 76.363-81.508 121.98-18.895 45.617-28.621 94.512-28.621 143.89 0 99.723 39.617 195.36 110.13 265.87 70.516 70.516 166.15 110.13 265.87 110.13 99.723 0 195.36-39.617 265.87-110.13 70.512-70.512 110.13-166.15 110.13-265.87 0-99.719-39.613-195.36-110.12-265.87-70.516-70.516-166.15-110.13-265.88-110.13zm0 42.465c43.316 0 86.207 8.625 126.23 25.387 40.02 16.762 76.379 41.332 107.01 72.305s54.926 67.738 71.5 108.21c16.578 40.465 25.105 83.84 25.105 127.64 0 88.461-34.75 173.3-96.605 235.84-61.859 62.551-145.75 97.691-233.23 97.691-43.312 0-86.207-8.625-126.22-25.387-40.02-16.762-76.383-41.332-107.01-72.301-30.629-30.973-54.926-67.742-71.504-108.21-16.574-40.469-25.105-83.84-25.105-127.64s8.5312-87.172 25.105-127.64c16.578-40.469 40.871-77.238 71.5-108.21 30.629-30.969 66.992-55.539 107.01-72.301 40.02-16.762 82.914-25.387 126.23-25.387z" fill="#007235"/>
  <path d="m403.59 497.43c0 15.238-12.352 27.59-27.586 27.59-15.238 0-27.59-12.352-27.59-27.59 0-15.234 12.352-27.586 27.59-27.586 15.234 0 27.586 12.352 27.586 27.586" fill="#007335" fill-rule="evenodd"/>
  <path d="m341.12 457.02c19.25-19.25 50.508-19.25 69.758 0 6.6055 6.6055 17.316 6.6055 23.922 0 6.6016-6.6055 6.6016-17.316 0-23.918-32.461-32.461-85.141-32.461-117.6 0-6.6055 6.6016-6.6055 17.312 0 23.918 6.6055 6.6055 17.316 6.6055 23.922 0z" fill="#007335" fill-rule="evenodd"/>
  <path d="m294.3 410.17c45.094-45.09 118.35-45.09 163.44 0 6.5898 6.5898 17.332 6.5898 23.922 0 6.5859-6.5859 6.5859-17.328 0-23.918-58.301-58.301-152.98-58.301-211.28 0-6.5898 6.5898-6.5898 17.332 0 23.918 6.5898 6.5898 17.332 6.5898 23.918 0z" fill="#007335" fill-rule="evenodd"/>
  <path d="m247.43 363.32c70.961-70.961 186.19-70.961 257.15 0 6.6016 6.6055 17.281 6.6055 23.887 0 6.6055-6.6016 6.6055-17.281 0-23.887-84.172-84.172-220.76-84.172-304.93 0-6.6055 6.6055-6.6055 17.285 0 23.887 6.6055 6.6055 17.285 6.6055 23.891 0z" fill="#007335" fill-rule="evenodd"/>
  <path d="m200.56 316.48c96.801-96.801 254.06-96.801 350.86 0 6.6211 6.6211 17.238 6.6211 23.859 0 6.6172-6.6211 6.6172-17.238 0-23.855-109.98-109.98-288.6-109.98-398.58 0-6.6172 6.6172-6.6172 17.234 0 23.855 6.6211 6.6211 17.238 6.6211 23.859 0z" fill="#007335" fill-rule="evenodd"/>
 </g>
</svg>
